<svg width="38" height="20" viewBox="0 0 38 20" fill="none" xmlns="http://www.w3.org/2000/svg">
<g clip-path="url(#clip0)">
<path d="M37.9493 4.34748L37.9484 4.34054C37.557 1.49442 35.3371 -0.310746 32.671 0.0475119C28.8923 0.553237 23.9106 0.858581 19.0019 0.884604C14.0968 0.858581 9.11244 0.553237 5.32592 0.0475119C2.65457 -0.312481 0.439029 1.49269 0.0554191 4.3388C-0.121163 5.60008 0.123268 6.83186 0.802632 8.10182C3.02339 12.296 5.82262 15.4257 9.12114 17.4018C11.4115 18.7862 13.975 19.6294 16.7464 19.9053C17.4214 19.9686 18.119 20.0015 18.8236 20.0015C18.8697 20.0015 18.9297 20.0015 19.0002 19.9972C19.068 20.0015 19.1254 20.0015 19.1733 20.0015C19.8848 20.0015 20.5833 19.9686 21.2531 19.9053C24.021 19.6294 26.5845 18.7871 28.8705 17.4053C32.1812 15.4214 34.9839 12.2916 37.203 8.10008C37.8719 6.83013 38.1154 5.60268 37.9493 4.34748ZM9.33165 14.2867C12.0134 11.4137 15.1867 10.0102 19.0002 9.99978C22.7606 10.0102 26.0095 11.451 28.6696 14.2841C22.2523 17.7776 15.4054 17.7776 9.33165 14.2867Z" fill="black"/>
</g>
<defs>
<clipPath id="clip0">
<rect width="38" height="20" fill="white"/>
</clipPath>
</defs>
</svg>
